PathFileType	4	(X/Y/Z)	OpenSim_Sub04_EMGBaseline_Accel.trc
DataRate	CameraRate	NumFrames	NumMarkers	Units	OrigDataRate	OrigDataStartFrame	OrigNumFrames
100	100	41	8	m	100	6949	7941
Frame#	Time	torso_imu_offset_imu	pelvis_imu_offset_imu	tibia_r_imu_offset_imu	femur_r_imu_offset_imu	tibia_l_imu_offset_imu	femur_l_imu_offset_imu	toes_r_imu_offset_imu	toes_l_imu_offset_imu
				X1	Y1	Z1	X2	Y2	Z2	X3	Y3	Z3	X4	Y4	Z4	X5	Y5	Z5	X6	Y6	Z6	X7	Y7	Z7	X8		Y8	Z8	

6949	69.48000000	-7.54141160	0.59103130	8.59331164	8.75074279	2.18051759	2.92624626	9.05181991	3.96173297	0.62267413	8.77684563	-2.08924572	-0.90170004	12.05706134	-4.80047937	0.20829072	8.21539027	2.24726479	0.71775721	6.32188507	-1.20295844	7.87654087	13.80710939	2.99908061	11.26231207
6950	69.49000000	-7.57136940	0.61273057	8.66603115	8.80144285	2.16142467	2.91372665	9.09308987	3.71258977	0.63939714	8.97951065	-1.92088160	-0.87440573	12.27704816	-4.21653930	0.35247751	8.55831190	2.70490222	0.70051890	6.57252435	-1.33834450	7.59925238	15.13966342	1.54729430	10.83777786
6951	69.50000000	-7.48556215	0.63667271	8.67864886	8.87266314	2.15840683	2.89746914	9.16476350	3.54551233	0.61069974	9.15490092	-1.85023171	-0.82271423	12.03615518	-3.77197186	0.83433295	8.90083799	3.15856545	0.70898156	6.31106724	-1.21191601	7.76827134	18.35458321	0.59520367	10.89255737
6952	69.51000000	-7.43432109	0.68121523	8.61761768	8.91174878	2.09654432	2.91272316	9.33682488	3.35857102	0.81620673	9.36049178	-1.72944788	-0.76162822	11.53673874	-3.00614892	1.84644517	9.02862233	3.59360510	0.76407293	5.92359401	-0.98942041	8.24288477	21.90405094	0.22347138	10.53966531
6953	69.52000000	-7.54835816	0.61966378	8.58132214	9.04439625	2.06060766	2.90616913	9.54445768	3.19935333	0.85822752	9.42653933	-1.60641979	-0.72161089	11.38628843	-2.08854865	2.28713083	8.86742518	4.27881572	0.80993274	5.85373561	-1.08722624	8.28537301	21.98221581	1.33459965	9.21917441
6954	69.53000000	-7.70931330	0.61891391	8.68586142	9.23004419	2.04075419	2.84200671	9.69960345	3.14838164	0.84187542	9.50062136	-1.58374906	-0.69629328	11.30785649	-1.70737132	2.41124226	8.73824161	5.21759178	0.88824038	6.50001990	-1.45938757	7.57057950	18.49573489	2.92714290	7.15853248
6955	69.54000000	-7.81593457	0.56746549	8.73646447	9.45837287	1.95865116	2.83636790	9.77649269	3.31834624	0.95949914	9.53491782	-1.62629646	-0.72382290	10.69612542	-2.15091560	2.54845772	8.66030205	5.95806425	0.96371488	6.51054247	-1.02519523	7.92351447	14.80628638	3.17362975	5.37828876
6956	69.55000000	-7.80781158	0.50978039	8.79964755	9.73697026	2.06678163	2.91174929	9.82524505	3.66629865	0.87977895	9.64352478	-1.72108349	-0.81606035	10.10080928	-2.42140190	2.45322272	8.73456591	6.26559376	0.92202815	6.21824197	-1.18105860	8.08711508	13.80270738	2.46509188	4.16817188
6957	69.56000000	-7.77730768	0.45709848	8.94042509	9.81335531	2.14132391	2.93506009	10.04452223	3.92431839	0.92667089	9.78323972	-2.11984649	-0.97503773	9.94559916	-2.21328369	2.21010667	8.81314166	6.11608311	0.64925481	6.20609786	-1.16167224	8.10306201	14.64425776	1.74231542	3.50173124
6958	69.57000000	-7.79312506	0.42646172	8.96282570	9.79636583	2.22562042	3.00278202	10.29285350	3.93731824	1.50637427	9.88073637	-2.36082514	-1.09318535	9.96318972	-1.54153644	1.72882365	8.91746317	5.77974620	0.31255365	6.20791003	-1.14840767	8.17609100	15.92119744	0.92517120	2.45548019
6959	69.58000000	-7.84013871	0.37785479	9.02438500	9.59466031	2.24124982	2.95759776	10.24656965	3.55378958	0.89629423	9.72899311	-2.72192361	-1.04349798	9.68355200	-0.05583799	1.45564928	9.05818687	5.61262730	0.02077983	6.61739655	-1.00938484	7.82111575	15.86317828	-0.03702979	0.46009563
6960	69.59000000	-7.87540266	0.49494145	9.07761628	9.45370785	2.23262671	2.83449673	10.06335849	3.43298511	0.95813401	9.38875406	-3.10934686	-0.83687904	9.27404042	1.99546726	1.81608341	9.00685412	5.71285596	-0.13200561	6.47606189	-1.07773603	7.90112985	14.96470332	0.18904811	-1.41586902
6961	69.60000000	-7.82415240	0.62301614	9.08035742	9.24296357	2.08661310	2.74474560	9.93615215	3.38301768	1.21657284	9.23453278	-3.22926121	-0.84298643	9.16157322	3.37709152	1.78214689	8.96721657	5.82259790	-0.09660653	6.51991667	-1.27522588	7.83531478	14.81682612	0.78671509	-2.66791633
6962	69.61000000	-7.81394722	0.71037026	9.11375942	9.16563808	2.00300541	2.54455356	9.74697869	3.50591303	0.85301989	9.10937237	-3.46937525	-0.99324754	9.07736633	3.85272057	1.57226714	8.88635810	5.91654783	0.17710520	6.61504168	-1.24276054	7.78827717	14.98695262	1.54167147	-3.03486034
6963	69.62000000	-7.73916573	0.73959314	9.17461191	9.13195070	1.76930351	2.40086888	9.66096852	3.66944281	0.94591933	8.93708859	-3.60512952	-1.04379008	8.84448543	2.87662601	1.47740615	8.81842316	5.83023274	0.77876790	6.77639704	-1.26236168	7.64395913	13.80208831	2.24141677	-2.25032243
6964	69.63000000	-7.67252379	0.71106565	9.10368989	9.06987471	1.55089965	2.14262466	9.56307303	3.66750137	0.98350246	8.81073895	-3.68406034	-0.93043190	8.37785773	0.99490470	1.12861959	8.86869797	5.31382254	1.41123083	6.91708373	-1.42999915	7.40508925	13.58549768	2.05590769	-1.01419431
6965	69.64000000	-7.64119155	0.67800486	9.08966526	9.15493474	1.46137841	1.94379279	9.37345992	3.84448137	0.97241009	8.67052008	-3.67696871	-0.75705963	8.24468606	-0.54093148	0.40801582	9.03503108	4.40703971	1.90212667	6.92379286	-1.42476841	7.35757413	10.48164453	1.72202982	-0.70595892
6966	69.65000000	-7.66933613	0.70118790	9.13563661	9.30754848	1.41609409	1.96206899	9.27388565	4.09582279	0.80203384	8.66672905	-3.62644303	-0.57674767	8.74908188	-1.23189884	-0.41374061	9.31282620	3.43878971	1.71937865	6.98842189	-1.39502481	7.33204060	0.58484444	4.13436982	3.27220948
6967	69.66000000	-7.88718310	0.64274655	9.18656116	9.48748535	1.35104588	1.94723419	9.34191147	4.33741783	0.92554297	8.87786129	-3.74344000	-0.57707871	9.48641360	-1.06683256	-0.41839136	9.59060766	2.71880972	1.11633023	7.06738652	-1.53847091	7.25506138	8.73605684	8.48658499	15.94135628
6968	69.67000000	-7.87145543	0.55626330	9.30513472	9.65486893	1.29171003	2.10390547	9.54698357	4.50380743	1.18451813	9.10404330	-3.80971449	-0.66051887	10.40788041	-1.01006188	0.18706271	10.00663578	2.12005021	0.31896204	7.37460376	-1.61004056	7.10252993	1.32317611	8.04433339	17.00671105
6969	69.68000000	-7.90410540	0.44986213	9.47583219	9.82719524	1.10032737	2.23932966	9.83343847	4.52264510	1.14660502	9.28281673	-3.83007519	-0.68028033	10.96149887	-0.99573401	1.46114863	10.05329726	1.87282105	-0.46398672	7.13251096	-1.67000146	7.30010302	0.91433359	-0.40448520	11.31495680
6970	69.69000000	-7.97564109	0.35963480	9.61959098	9.97387569	0.99898662	2.31605585	10.29885588	4.06405476	1.20709108	9.43521295	-3.63337218	-0.54678313	10.70952352	0.17064194	3.09142710	9.67105640	1.64950529	-0.83847227	7.02823457	-2.20322752	7.29409616	3.14381729	-3.71748255	10.37425382
6971	69.70000000	-7.86581105	0.30323648	9.60944832	10.34950477	0.95686278	2.51963625	10.66640447	3.73864245	1.45756511	9.53081865	-3.57811322	-0.49369954	10.98084525	1.08231894	4.24316317	9.56752725	1.49981242	-0.86807455	7.15569333	-2.29237373	7.34648532	7.88921103	-4.23715548	13.79418180
6972	69.71000000	-7.88657653	0.24489146	9.65359036	10.62396160	0.85418444	3.17526789	10.85653148	3.63032311	1.63303436	9.66616725	-3.64552179	-0.51058360	11.60975919	1.15500153	5.17882666	10.00134077	1.40541740	-0.69128786	7.08371852	-2.52916592	6.95658088	9.65324516	-3.06934441	15.43620973
6973	69.72000000	-8.09453032	0.24122358	9.70116078	10.82059683	0.66413241	3.75478940	11.14176795	3.10800076	1.28631545	9.84223554	-3.60290984	-0.56272735	11.93995785	0.14772633	4.66425117	11.17709969	1.21986009	-0.59108650	7.62462158	-2.54948968	7.49581643	7.84573724	0.83292497	13.29321875
6974	69.73000000	-8.39483524	0.20471230	9.71534668	10.85623998	0.46520573	4.12361555	11.79606804	2.53532910	1.67852240	10.02227488	-3.64923902	-0.60914599	11.71530632	-0.99429400	3.14816477	12.73774860	1.65338508	-0.75132155	7.45488063	-2.62483899	7.49394720	6.38345218	5.84888048	11.31971141
6975	69.74000000	-8.51052168	0.09513741	9.72101220	10.71920098	0.18690896	4.43480806	12.50047688	1.96808975	1.96330925	10.26231253	-3.90258117	-0.61312988	11.01901699	-1.20596889	0.79391694	13.44402116	2.51012850	-0.87209184	6.77234779	-2.84220262	7.13281373	10.12232722	14.41916388	13.07629169
6976	69.75000000	-8.53755420	-0.09203650	9.62968182	10.61567644	-0.15005288	4.68512635	13.02730887	1.54175966	1.98784233	10.40591820	-4.07594287	-0.51302991	11.27905607	-0.34627609	-1.08063276	13.12300669	3.10121044	-1.00679825	7.54837744	-2.86625075	7.27342591	14.26112420	7.62830084	11.69883595
6977	69.76000000	-8.79001750	-0.32303556	9.60247558	10.50828670	-0.53959432	4.98273007	13.25383284	1.30879558	1.72756944	10.35661859	-4.07385305	-0.27394040	11.92410741	0.21148803	-1.19252643	11.99149301	3.65749732	-1.51008982	9.54028674	-2.33082022	7.23827248	10.07314358	-0.95831962	14.49435772
6978	69.77000000	-8.89459180	-0.50577137	9.58271490	10.15966901	-0.80242116	5.12363221	13.18956998	1.37903248	1.85514932	10.27029034	-3.82625988	-0.00102837	11.71166743	-1.44857204	-1.68237375	10.46396816	3.82818354	-2.21016518	9.22513855	-2.87187362	7.25120687	9.97402703	-2.43983704	13.87508113
6979	69.78000000	-8.59710327	-0.60009371	9.38125847	9.77347689	-0.83814018	5.11810250	12.91618580	1.58746044	2.26379993	10.23761250	-3.32749870	0.57536602	10.46320543	-4.41918394	-1.56341997	9.13885846	3.06527462	-2.45010568	12.67755811	-1.62036535	8.82527048	3.81024963	3.11244379	10.98154366
6980	69.79000000	-8.26897624	-0.72786050	9.20821631	9.22408905	-0.72496071	5.15167433	12.42122980	1.86439174	1.93661851	10.27504973	-2.76847182	1.11362556	9.44381629	-6.37688183	-1.80158611	8.57054176	1.48842799	-2.02477534	14.05270199	-1.61945416	8.19778301	7.52541599	2.89241387	10.70814804
6981	69.80000000	-7.95162279	-0.70604312	8.97728302	8.57538342	-0.41497076	5.12612273	11.83011554	2.54193449	1.11764299	10.40732634	-2.38292697	1.40805139	8.87567657	-7.39074685	-2.13480080	8.71830454	-0.20810029	-1.67370073	10.06697346	-4.88681177	7.05596619	6.51966098	2.24111769	10.51496003
6982	69.81000000	-7.73894753	-0.60402238	8.64294420	8.03896329	-0.09865845	4.99698417	11.28032897	3.53240702	0.72559986	10.36836615	-2.00767281	1.53499612	7.74422582	-7.03791134	-1.42607575	8.91701037	-1.24898839	-2.16250699	11.95970980	-1.50140768	7.88421866	6.06921554	2.62897015	10.59945507
6983	69.82000000	-7.47840100	-0.52081921	8.35107205	7.67534470	0.17108159	4.83058244	10.54339632	4.77360213	0.46330243	10.26104124	-1.61330796	1.64222279	7.33860435	-5.51624198	-1.29048851	8.87531049	-2.18029605	-3.25977447	13.52118822	-1.99527213	6.92183141	5.46650262	2.44370323	11.10608593
6984	69.83000000	-7.38566789	-0.59296835	8.02667994	7.60419466	0.28044777	4.72475386	9.55513331	6.07524146	0.80410929	10.11564467	-1.30975795	1.73361399	8.48741348	-4.52060964	-0.54698048	8.58550255	-2.99303358	-4.31572550	13.77915372	-3.85730026	7.39296406	5.59551962	1.81776763	10.98762084
6985	69.84000000	-7.43345814	-0.57947594	7.83745634	7.79707861	0.26945841	4.72140562	8.46148679	7.55142153	1.46229780	9.88951504	-1.01126347	1.61568775	9.61183835	-4.06126861	-0.32874347	8.32804341	-3.05529072	-4.48858653	12.20543260	-3.77353425	6.67127677	5.17946794	1.41842943	11.20786634
6986	69.85000000	-7.63850471	-0.70272387	7.88263444	8.20176161	0.16575346	4.81327709	7.39221955	8.62759713	1.18748797	9.90385579	-0.65303859	1.31292538	10.14798027	-3.16609538	-1.03625998	8.63800338	-2.51432953	-3.91941093	9.04351920	-3.77990880	7.16872970	5.45924378	1.92263131	11.05764016
6987	69.86000000	-7.79526342	-0.80255436	7.90130766	8.66331757	0.04419375	4.91590305	6.56014664	9.25863232	0.61276050	10.26058158	-0.31818112	1.19657389	10.19036348	-2.34688655	-1.21738802	9.35991049	-1.58795302	-3.37614920	6.47359124	-3.82869514	4.25820952	5.97479721	2.28405536	10.59150128
6988	69.87000000	-7.79960130	-0.89120409	7.87698742	9.25173658	-0.13323230	5.04162889	5.87050021	9.21605338	0.46636711	10.85886676	-0.24292008	1.17995574	9.90078052	-1.67243745	-1.23872506	9.87924733	-0.29510667	-3.16819041	5.56724158	-1.90802575	-1.94432156	5.77264430	2.47016609	10.54523821
6989	69.88000000	-7.81328192	-1.02877763	8.05537235	9.84543961	-0.31080818	5.01848283	5.39735414	8.89031560	0.32772351	11.36452448	-0.29178976	1.11195546	9.79842439	-0.67374119	-0.84028359	9.96987754	0.98899052	-2.95814763	5.92573586	-0.20798328	14.46057591	5.40104969	2.44377018	10.84716369
